# File created by Blade
# Date/Time:  Fri Jan 16 19:49:56 2015
# Frame Rate: 120.000 fps
#------------------------------------------------------
:FULLY-SPECIFIED
:DEGREES
327
root 20.341130 35.075342 -12.179672 -113.330933 3.136666 -177.882259
Spine 66.785135 1.988948 -10.723101
Head -15.195243 2.655938 1.181028
LeftShoulder -20.391642 19.224590 9.854652
LeftArm -59.389916 12.872464 -102.276213
LeftForeArm 17.695452 -0.000000 -0.860388
LeftHand -1.805791 -0.000000 -43.768239
LeftHandThumb1 -26.253704 0.000000 33.147579
RightShoulder -25.611607 -52.310427 -2.865176
RightArm -21.696183 -26.595937 88.899035
RightForeArm -38.743865 -0.000000 7.241991
RightHand 4.410929 -0.000000 48.534759
RightHandThumb1 -24.326973 -0.000000 -32.862282
LeftUpLeg -70.975375 7.739951 1.558744
LeftLeg -8.198869 -0.000000 0.000000
LeftFoot -4.593216 32.852690 -7.879453
LeftToeBase 27.056820 -0.000000 -0.000000
RightUpLeg -71.927614 -1.579493 -3.688042
RightLeg -6.366564 -0.000000 0.000000
RightFoot -4.478841 -15.734402 14.960780
RightToeBase 27.020439 -0.000000 -0.000000
328
root 20.340965 35.074955 -12.183074 -112.913721 3.035513 -177.891818
Spine 67.071469 1.928951 -10.626406
Head -15.360335 2.647722 1.142203
LeftShoulder -20.337961 19.198383 9.918942
LeftArm -59.428578 12.891805 -102.322197
LeftForeArm 17.547539 -0.000000 -0.909567
LeftHand -1.840889 -0.000000 -43.765111
LeftHandThumb1 -26.253704 0.000000 33.147579
RightShoulder -25.608035 -52.367480 -2.881163
RightArm -21.615191 -26.435302 88.906111
RightForeArm -39.001416 -0.000000 7.130124
RightHand 4.562658 -0.000000 48.451777
RightHandThumb1 -24.326973 -0.000000 -32.862282
LeftUpLeg -71.433187 7.699209 1.595491
LeftLeg -8.139558 -0.000000 0.000000
LeftFoot -4.614594 32.857215 -7.871855
LeftToeBase 27.039827 -0.000000 -0.000000
RightUpLeg -72.306524 -1.587465 -3.832185
RightLeg -6.385507 -0.000000 0.000000
RightFoot -4.527806 -15.949788 14.888084
RightToeBase 26.981515 -0.000000 -0.000000
329
root 20.342146 35.075452 -12.184392 -112.478906 2.952565 -177.890107
Spine 67.293243 1.896744 -10.570546
Head -15.486432 2.684752 1.191080
LeftShoulder -20.290189 19.244918 9.978668
LeftArm -59.376868 12.783278 -102.172139
LeftForeArm 17.594846 -0.000000 -0.916558
LeftHand -1.811198 -0.000000 -43.769511
LeftHandThumb1 -26.253704 0.000000 33.147579
RightShoulder -25.469716 -52.339149 -2.998237
RightArm -21.661742 -26.340411 88.985766
RightForeArm -39.088510 -0.000000 7.147553
RightHand 4.579637 -0.000000 48.584447
RightHandThumb1 -24.326973 -0.000000 -32.862282
LeftUpLeg -71.901519 7.682746 1.607710
LeftLeg -8.098912 -0.000000 0.000000
LeftFoot -4.632322 32.843184 -7.878391
LeftToeBase 27.046314 -0.000000 -0.000000
RightUpLeg -72.664848 -1.560984 -4.087184
RightLeg -6.486197 -0.000000 0.000000
RightFoot -4.518167 -16.249066 15.011100
RightToeBase 26.723504 -0.000000 -0.000000
330
root 20.340246 35.075192 -12.185921 -112.055802 2.897171 -177.908058
Spine 67.499347 1.856025 -10.512483
Head -15.628628 2.719172 1.192997
LeftShoulder -20.183002 19.198718 10.059326
LeftArm -59.403249 12.657323 -102.053539
LeftForeArm 17.607096 -0.000000 -0.917293
LeftHand -1.828486 -0.000000 -43.863077
LeftHandThumb1 -26.253704 0.000000 33.147579
RightShoulder -25.353792 -52.283822 -3.098757
RightArm -21.771814 -26.420315 89.182781
RightForeArm -39.041756 -0.000000 7.114937
RightHand 4.591076 -0.000000 48.539347
RightHandThumb1 -24.326973 -0.000000 -32.862282
LeftUpLeg -72.350148 7.650474 1.609728
LeftLeg -8.062134 -0.000000 0.000000
LeftFoot -4.648071 32.848562 -7.876318
LeftToeBase 27.080890 -0.000000 -0.000000
RightUpLeg -73.052695 -1.574150 -4.281122
RightLeg -6.506425 -0.000000 0.000000
RightFoot -4.567567 -16.417644 14.887907
RightToeBase 26.817935 -0.000000 -0.000000
331
root 20.339462 35.073915 -12.189230 -111.669321 2.825003 -177.927306
Spine 67.731191 1.807958 -10.452130
Head -15.805720 2.744098 1.218317
LeftShoulder -20.114324 19.154240 10.134498
LeftArm -59.411870 12.603280 -102.057925
LeftForeArm 17.531191 -0.000000 -0.944280
LeftHand -1.826551 -0.000000 -43.880156
LeftHandThumb1 -26.253704 0.000000 33.147579
RightShoulder -25.324844 -52.259516 -3.169248
RightArm -21.746293 -26.496551 89.277627
RightForeArm -38.898192 -0.000000 7.079028
RightHand 4.447544 0.000000 48.582677
RightHandThumb1 -24.326973 -0.000000 -32.862282
LeftUpLeg -72.766037 7.618748 1.601456
LeftLeg -8.024766 -0.000000 0.000000
LeftFoot -4.659122 32.827963 -7.864724
LeftToeBase 27.074951 -0.000000 -0.000000
RightUpLeg -73.392080 -1.611745 -4.422777
RightLeg -6.548406 -0.000000 0.000000
RightFoot -4.562541 -16.531820 14.816611
RightToeBase 26.733538 -0.000000 -0.000000
332
root 20.340218 35.072628 -12.190387 -111.274366 2.733446 -177.932415
Spine 67.903522 1.763690 -10.344725
Head -15.927576 2.723666 1.223835
LeftShoulder -19.999240 19.125714 10.210610
LeftArm -59.380304 12.460712 -101.962956
LeftForeArm 17.572381 -0.000000 -0.980029
LeftHand -1.804671 -0.000000 -43.896799
LeftHandThumb1 -26.253704 0.000000 33.147579
RightShoulder -25.291608 -52.283834 -3.240960
RightArm -21.676427 -26.489597 89.347872
RightForeArm -38.906728 -0.000000 7.058542
RightHand 4.393096 -0.000000 48.568534
RightHandThumb1 -24.326973 -0.000000 -32.862282
LeftUpLeg -73.196722 7.593009 1.635935
LeftLeg -7.976873 -0.000000 0.000000
LeftFoot -4.659425 32.806738 -7.843302
LeftToeBase 27.015699 -0.000000 -0.000000
RightUpLeg -73.724075 -1.642377 -4.541366
RightLeg -6.620120 -0.000000 0.000000
RightFoot -4.563482 -16.625803 14.795988
RightToeBase 26.676815 -0.000000 -0.000000
333
root 20.342297 35.070655 -12.190679 -110.910223 2.659972 -177.937133
Spine 68.096772 1.704691 -10.339881
Head -16.121608 2.796621 1.273044
LeftShoulder -20.013548 19.103434 10.259388
LeftArm -59.352350 12.398158 -101.965068
LeftForeArm 17.505616 -0.000000 -0.983301
LeftHand -1.825504 0.000000 -43.846113
LeftHandThumb1 -26.253704 0.000000 33.147579
RightShoulder -25.161394 -52.168277 -3.383993
RightArm -21.734192 -26.457387 89.378621
RightForeArm -38.924694 -0.000000 7.066250
RightHand 4.449609 -0.000000 48.534178
RightHandThumb1 -24.326973 -0.000000 -32.862282
LeftUpLeg -73.603524 7.579281 1.633516
LeftLeg -7.924188 -0.000000 0.000000
LeftFoot -4.687133 32.781365 -7.821299
LeftToeBase 27.066944 -0.000000 -0.000000
RightUpLeg -74.034807 -1.680956 -4.624670
RightLeg -6.693474 -0.000000 0.000000
RightFoot -4.537006 -16.645272 14.796175
RightToeBase 26.743579 -0.000000 -0.000000
334
root 20.343743 35.068876 -12.190668 -110.541093 2.595617 -177.933042
Spine 68.218614 1.691279 -10.278045
Head -16.194504 2.804360 1.334814
LeftShoulder -19.911252 19.120946 10.361652
LeftArm -59.262676 12.253511 -101.916483
LeftForeArm 17.593861 0.000000 -1.004590
LeftHand -1.775652 -0.000000 -43.834570
LeftHandThumb1 -26.253704 0.000000 33.147579
RightShoulder -25.106582 -52.145642 -3.467401
RightArm -21.692325 -26.229505 89.346334
RightForeArm -39.113992 0.000000 7.087026
RightHand 4.487877 0.000000 48.603638
RightHandThumb1 -24.326973 -0.000000 -32.862282
LeftUpLeg -74.013524 7.575918 1.636426
LeftLeg -7.865889 -0.000000 0.000000
LeftFoot -4.722696 32.757751 -7.792140
LeftToeBase 27.127389 -0.000000 -0.000000
RightUpLeg -74.354268 -1.703725 -4.684001
RightLeg -6.758275 -0.000000 0.000000
RightFoot -4.513256 -16.736146 14.753564
RightToeBase 26.787356 -0.000000 -0.000000
335
root 20.344118 35.067534 -12.188959 -110.192928 2.546012 -177.939476
Spine 68.343157 1.659679 -10.261546
Head -16.324901 2.829151 1.382422
LeftShoulder -19.851134 19.069604 10.456919
LeftArm -59.242138 12.077698 -101.840433
LeftForeArm 17.726592 -0.000000 -0.994835
LeftHand -1.806307 -0.000000 -43.811641
LeftHandThumb1 -26.253704 0.000000 33.147579
RightShoulder -25.063049 -52.100414 -3.567151
RightArm -21.640708 -26.162800 89.323232
RightForeArm -39.094284 0.000000 7.075999
RightHand 4.431752 -0.000000 48.604199
RightHandThumb1 -24.326973 -0.000000 -32.862282
LeftUpLeg -74.412894 7.563442 1.615041
LeftLeg -7.797179 -0.000000 0.000000
LeftFoot -4.752950 32.734454 -7.786932
LeftToeBase 27.080379 -0.000000 -0.000000
RightUpLeg -74.664756 -1.743531 -4.725432
RightLeg -6.811253 -0.000000 0.000000
RightFoot -4.490726 -16.759935 14.732474
RightToeBase 26.712560 -0.000000 -0.000000
336
root 20.345098 35.065751 -12.183639 -109.852226 2.493152 -177.949886
Spine 68.440488 1.614864 -10.256841
Head -16.452602 2.853700 1.425396
LeftShoulder -19.817571 19.053925 10.528264
LeftArm -59.167926 11.950506 -101.832807
LeftForeArm 17.769468 -0.000000 -1.035072
LeftHand -1.860573 -0.000000 -43.689822
LeftHandThumb1 -26.253704 0.000000 33.147579
RightShoulder -25.006695 -52.026657 -3.666505
RightArm -21.623588 -26.112977 89.297280
RightForeArm -39.204954 -0.000000 7.079462
RightHand 4.479179 -0.000000 48.679368
RightHandThumb1 -24.326973 -0.000000 -32.862282
LeftUpLeg -74.811603 7.542575 1.616542
LeftLeg -7.717076 -0.000000 0.000000
LeftFoot -4.783723 32.736847 -7.754301
LeftToeBase 27.100009 -0.000000 -0.000000
RightUpLeg -74.979027 -1.790549 -4.749140
RightLeg -6.850623 -0.000000 0.000000
RightFoot -4.468057 -16.813747 14.718594
RightToeBase 26.552654 -0.000000 -0.000000
